<svg width="24" height="24" viewBox="0 0 24 24" fill="none" xmlns="http://www.w3.org/2000/svg">
<path d="M14.9944 14.4994C14.0878 14.44 13.375 13.69 13.375 12.7732C13.375 12.7426 13.3756 12.712 13.3774 12.6814V12.6856C13.3756 12.6568 13.3744 12.6232 13.3744 12.589C13.3744 11.674 14.0884 10.9264 14.9896 10.8718H14.9944C15.8998 10.921 16.615 11.6668 16.615 12.58C16.615 12.6172 16.6138 12.6538 16.6114 12.6904V12.6856C16.6132 12.7156 16.6144 12.751 16.6144 12.7864C16.6144 13.7002 15.8998 14.4472 14.9986 14.4988H14.9938L14.9944 14.4994ZM9.01485 14.4994C8.10825 14.44 7.39545 13.69 7.39545 12.7732C7.39545 12.7426 7.39605 12.712 7.39785 12.6814V12.6856C7.39605 12.6568 7.39485 12.6232 7.39485 12.589C7.39485 11.674 8.10885 10.9264 9.01005 10.8718H9.01485C9.92025 10.921 10.6354 11.6668 10.6354 12.58C10.6354 12.6172 10.6342 12.6538 10.6318 12.6904V12.6856C10.6336 12.7144 10.6348 12.748 10.6348 12.7822C10.6348 13.6972 9.92085 14.4448 9.01965 14.4994H9.01485ZM18.235 6.2806C17.1772 5.7814 15.9484 5.3866 14.662 5.158L14.5726 5.1448C14.5696 5.1442 14.566 5.1436 14.5624 5.1436C14.5414 5.1436 14.5234 5.155 14.5138 5.1718C14.3734 5.4184 14.221 5.7262 14.0836 6.0418L14.0578 6.1084C13.4398 6.0094 12.727 5.953 12.001 5.953C11.275 5.953 10.5622 6.0094 9.86685 6.118L9.94425 6.1078C9.78225 5.7298 9.62745 5.4226 9.45645 5.125L9.48105 5.1712C9.47085 5.1538 9.45225 5.143 9.43125 5.143C9.42825 5.143 9.42465 5.143 9.42165 5.1436C8.04585 5.3854 6.81705 5.7796 5.66865 6.3178L5.75925 6.2794C5.74905 6.2836 5.74065 6.2908 5.73525 6.2998C4.02285 8.7244 2.99805 11.7412 2.99805 14.9974C2.99805 15.5416 3.02685 16.0786 3.08265 16.6078L3.07725 16.5418C3.07905 16.5592 3.08805 16.5736 3.10065 16.5838C4.38465 17.5444 5.87745 18.3184 7.48845 18.8266L7.59405 18.8554C7.59885 18.8572 7.60485 18.8578 7.61085 18.8578C7.63005 18.8578 7.64685 18.8488 7.65705 18.835C7.97805 18.403 8.28345 17.9134 8.54805 17.3998L8.57625 17.3398C8.57985 17.3326 8.58225 17.3236 8.58225 17.314C8.58225 17.2894 8.56665 17.269 8.54505 17.2606H8.54445C7.99725 17.0494 7.53465 16.8244 7.09425 16.5664L7.14045 16.5916C7.12305 16.5814 7.11165 16.5628 7.11165 16.5418C7.11165 16.5232 7.12065 16.5064 7.13445 16.4962C7.22865 16.4254 7.32345 16.3522 7.41345 16.2778C7.42305 16.27 7.43565 16.2652 7.44885 16.2652C7.45725 16.2652 7.46505 16.267 7.47165 16.27H7.47105C8.79585 16.9066 10.351 17.2786 11.9926 17.2786C13.6342 17.2786 15.19 16.9066 16.5784 16.2424L16.5142 16.27C16.5214 16.2664 16.5292 16.2646 16.5382 16.2646C16.5514 16.2646 16.564 16.2694 16.5736 16.2772C16.6636 16.3516 16.7578 16.426 16.8532 16.4962C16.867 16.507 16.876 16.5238 16.876 16.5424C16.876 16.5634 16.8646 16.5814 16.8484 16.5916C16.4518 16.8286 15.9892 17.053 15.5074 17.2384L15.4444 17.26C15.4228 17.2684 15.4072 17.2894 15.4072 17.3134C15.4072 17.323 15.4096 17.332 15.4138 17.3398C15.7144 17.9158 16.0192 18.4042 16.3564 18.868L16.3324 18.8338C16.3426 18.8482 16.36 18.8578 16.3786 18.8578C16.3846 18.8578 16.3906 18.8566 16.396 18.8554C18.115 18.3202 19.6102 17.5462 20.935 16.5562L20.896 16.5844C20.9092 16.5748 20.9176 16.5598 20.9194 16.543C20.9716 16.0726 21.001 15.5266 21.001 14.974C21.001 11.725 19.9738 8.716 18.2272 6.2536L18.2584 6.3004C18.2536 6.2908 18.2452 6.283 18.2356 6.2788L18.235 6.2806Z" fill="#AAB9D0"/>
</svg>
