<svg width="81" height="24" viewBox="0 0 81 24" fill="none" xmlns="http://www.w3.org/2000/svg">
<g clip-path="url(#clip0_1_771)">
<mask id="mask0_1_771" style="mask-type:luminance" maskUnits="userSpaceOnUse" x="0" y="0" width="81" height="24">
<path d="M80.6387 0H0.00012207V24H80.6387V0Z" fill="white"/>
</mask>
<g mask="url(#mask0_1_771)">
<path d="M16.1085 14.1114V9.88672H4.38293V14.1114H16.1085Z" fill="#1F242C"/>
<path d="M17.9232 0H6.80709C3.04701 0 0.00012207 2.9347 0.00012207 6.5563V24H4.38296V6.5563C4.38296 5.26633 5.46779 4.22144 6.80709 4.22144H17.9232V0Z" fill="#1F242C"/>
<path d="M22.426 0V14.2671C22.426 17.3115 19.8646 19.7786 16.7039 19.7786H10.6603V24H16.6804C22.2754 24 26.8089 19.6334 26.8089 14.2445V0H22.426Z" fill="#1F242C"/>
<path d="M44.9039 0H37.5144C34.1126 0 31.3536 2.65735 31.3536 5.93389V24H35.7365V5.84359C35.7365 4.94706 36.4898 4.22144 37.4206 4.22144H44.9039V0Z" fill="#1F242C"/>
<path d="M35.7365 24H43.126C46.5278 24 49.2867 21.3427 49.2867 18.0661V0H44.9039V18.1564C44.9039 19.0529 44.1506 19.7786 43.2198 19.7786H35.7365V24Z" fill="#1F242C"/>
<path d="M58.2131 24V9.7329C58.2131 6.68852 60.7745 4.22144 63.9352 4.22144H69.9787V0H63.9586C58.3637 0 53.8302 4.36657 53.8302 9.75548V24H58.2131Z" fill="#1F242C"/>
<path d="M76.2535 8.71094H68.864C65.4621 8.71094 62.7032 11.3683 62.7032 14.6448V24.0004H67.086V14.5577C67.086 13.6612 67.8394 12.9356 68.7702 12.9356H76.2535V8.71094Z" fill="#1F242C"/>
<path d="M67.09 24H74.4795C77.8813 24 80.6401 21.3427 80.6401 18.0661V0H76.2575V18.1564C76.2575 19.0529 75.5041 19.7786 74.5733 19.7786H67.09V24Z" fill="#1F242C"/>
<path d="M74.4761 24C77.8779 24 80.6369 21.3427 80.6369 18.0661V0H76.254V18.1564C76.254 20.0753 75.3232 24 71.754 24H74.4761Z" fill="#1F242C"/>
</g>
</g>
<defs>
<clipPath id="clip0_1_771">
<rect width="81" height="24" fill="white"/>
</clipPath>
</defs>
</svg>
