<svg width="24" height="24" viewBox="0 0 24 24" fill="none" xmlns="http://www.w3.org/2000/svg">
<path d="M13.5374 12.0011C13.5374 15.7125 10.507 18.7213 6.76859 18.7213C3.03022 18.7213 0 15.7134 0 12.0011C0 8.28889 3.03045 5.28125 6.76859 5.28125C10.5067 5.28125 13.5374 8.2898 13.5374 12.0011ZM20.9629 12.0011C20.9629 15.4949 19.4475 18.3269 17.5785 18.3269C15.7094 18.3269 14.1941 15.494 14.1941 12.0011C14.1941 8.50827 15.7094 5.67536 17.5785 5.67536C19.4475 5.67536 20.9629 8.50827 20.9629 12.0011ZM24 12.0011C24 15.1314 23.467 17.6688 22.8097 17.6688C22.1523 17.6688 21.6193 15.1305 21.6193 12.0011C21.6193 8.87179 22.1523 6.33351 22.8099 6.33351C23.4675 6.33351 24 8.87111 24 12.0011Z" fill="#AAB9D0"/>
</svg>
